<svg width="150" height="30" viewBox="0 0 150 30" fill="none" xmlns="http://www.w3.org/2000/svg">
<path fill-rule="evenodd" clip-rule="evenodd" d="M6.54168 9.96032C8.18369 8.35505 10.4328 7.36524 12.9138 7.36524C15.3946 7.36524 17.6436 8.3549 19.2855 9.95996C19.875 9.37205 20.3831 8.70308 20.7918 7.97125C18.7245 6.05851 15.9561 4.88907 12.9138 4.88907C9.87132 4.88907 7.10275 6.05866 5.03542 7.97163C5.44406 8.70346 5.95223 9.37243 6.54168 9.96032ZM4.96614 12.0137C4.3319 11.4172 3.76513 10.7501 3.27846 10.0251C2.04621 11.8612 1.32759 14.0692 1.32759 16.4445C1.32759 22.8264 6.51491 28 12.9138 28C19.3127 28 24.5 22.8264 24.5 16.4445C24.5 14.0688 23.7812 11.8606 22.5486 10.0244C22.062 10.7494 21.4953 11.4165 20.8611 12.013C21.5974 13.3238 22.0172 14.8353 22.0172 16.4445C22.0172 21.4589 17.9415 25.5238 12.9138 25.5238C7.8861 25.5238 3.81034 21.4589 3.81034 16.4445C3.81034 14.8355 4.23001 13.3242 4.96614 12.0137Z" fill="white"/>
<path fill-rule="evenodd" clip-rule="evenodd" d="M12.7654 10.6666C17.5646 10.6666 21.4551 6.78643 21.4551 2C21.4551 2 8.87535 2 4.07617 2C4.07617 6.78643 7.9662 10.6666 12.7654 10.6666ZM12.7654 13.1428C18.9358 13.1428 23.9378 8.15398 23.9378 2C23.9378 2 10.2465 2 4.07617 2C-2.0942 2 1.59292 2 1.59292 2C1.59292 8.15398 6.595 13.1428 12.7654 13.1428Z" fill="white"/>
<path d="M43.8115 18.1045L35.1104 18.5293L35.1689 23.1143L47.8252 22.3965L47.8838 25.2822L32.415 26.1172L32.0781 5.24316L47.9863 4.99414L47.8838 7.79199L34.9639 7.99707L35.0518 15.6436L43.7529 15.292L43.8115 18.1045ZM70.9592 5.15527L63.6496 19.4668V26.4834L60.6174 26.6592L60.8518 19.3936L52.6633 5.44824L56.1203 5.05273L62.3312 16.3027L67.634 5.05273L70.9592 5.15527ZM97.7846 15.6436C97.7846 16.6885 97.6527 17.6943 97.3891 18.6611C97.1254 19.6182 96.7494 20.5166 96.2611 21.3564C95.7826 22.1963 95.2064 22.9629 94.5326 23.6562C93.8588 24.3496 93.1068 24.9453 92.2768 25.4434C91.4564 25.9316 90.5727 26.3125 89.6254 26.5859C88.6879 26.8594 87.7113 26.9961 86.6957 26.9961C85.6703 26.9961 84.684 26.8594 83.7367 26.5859C82.7992 26.3125 81.9203 25.9316 81.1 25.4434C80.2797 24.9453 79.5326 24.3496 78.8588 23.6562C78.185 22.9629 77.6088 22.1963 77.1303 21.3564C76.6518 20.5166 76.2807 19.6182 76.017 18.6611C75.7533 17.6943 75.6215 16.6885 75.6215 15.6436C75.6215 14.5986 75.7533 13.5928 76.017 12.626C76.2807 11.6592 76.6518 10.7559 77.1303 9.91602C77.6088 9.07617 78.185 8.31445 78.8588 7.63086C79.5326 6.9375 80.2797 6.34668 81.1 5.8584C81.9203 5.36035 82.8041 4.97949 83.7514 4.71582C84.6986 4.44238 85.6801 4.30566 86.6957 4.30566C87.7113 4.30566 88.6879 4.44238 89.6254 4.71582C90.5727 4.97949 91.4564 5.36035 92.2768 5.8584C93.1068 6.34668 93.8588 6.9375 94.5326 7.63086C95.2064 8.31445 95.7826 9.07617 96.2611 9.91602C96.7494 10.7559 97.1254 11.6592 97.3891 12.626C97.6527 13.5928 97.7846 14.5986 97.7846 15.6436ZM94.8842 15.6436C94.8842 14.8721 94.7865 14.1299 94.5912 13.417C94.3959 12.6943 94.1176 12.0205 93.7562 11.3955C93.4047 10.7705 92.9799 10.2041 92.4818 9.69629C91.9838 9.17871 91.432 8.73926 90.8266 8.37793C90.2211 8.00684 89.5668 7.72363 88.8637 7.52832C88.1703 7.32324 87.4477 7.2207 86.6957 7.2207C85.5629 7.2207 84.5033 7.44531 83.517 7.89453C82.5307 8.33398 81.6664 8.93457 80.9242 9.69629C80.182 10.458 79.5961 11.3516 79.1664 12.377C78.7465 13.3926 78.5365 14.4814 78.5365 15.6436C78.5365 16.8057 78.7465 17.8994 79.1664 18.9248C79.5961 19.9502 80.182 20.8438 80.9242 21.6055C81.6664 22.3672 82.5307 22.9727 83.517 23.4219C84.5033 23.8613 85.5629 24.0811 86.6957 24.0811C87.4477 24.0811 88.1703 23.9834 88.8637 23.7881C89.5668 23.583 90.2211 23.2998 90.8266 22.9385C91.432 22.5674 91.9838 22.1279 92.4818 21.6201C92.9799 21.1025 93.4047 20.5312 93.7562 19.9062C94.1176 19.2812 94.3959 18.6123 94.5912 17.8994C94.7865 17.1768 94.8842 16.4248 94.8842 15.6436ZM121.05 26.3369L105.084 27.4355L104.996 5.15527L108.028 4.99414L107.94 24.2275L120.904 23.2168L121.05 26.3369ZM148.066 15.6436C148.066 16.6885 147.934 17.6943 147.671 18.6611C147.407 19.6182 147.031 20.5166 146.543 21.3564C146.064 22.1963 145.488 22.9629 144.814 23.6562C144.14 24.3496 143.388 24.9453 142.558 25.4434C141.738 25.9316 140.854 26.3125 139.907 26.5859C138.97 26.8594 137.993 26.9961 136.977 26.9961C135.952 26.9961 134.966 26.8594 134.018 26.5859C133.081 26.3125 132.202 25.9316 131.382 25.4434C130.561 24.9453 129.814 24.3496 129.14 23.6562C128.467 22.9629 127.89 22.1963 127.412 21.3564C126.933 20.5166 126.562 19.6182 126.299 18.6611C126.035 17.6943 125.903 16.6885 125.903 15.6436C125.903 14.5986 126.035 13.5928 126.299 12.626C126.562 11.6592 126.933 10.7559 127.412 9.91602C127.89 9.07617 128.467 8.31445 129.14 7.63086C129.814 6.9375 130.561 6.34668 131.382 5.8584C132.202 5.36035 133.086 4.97949 134.033 4.71582C134.98 4.44238 135.962 4.30566 136.977 4.30566C137.993 4.30566 138.97 4.44238 139.907 4.71582C140.854 4.97949 141.738 5.36035 142.558 5.8584C143.388 6.34668 144.14 6.9375 144.814 7.63086C145.488 8.31445 146.064 9.07617 146.543 9.91602C147.031 10.7559 147.407 11.6592 147.671 12.626C147.934 13.5928 148.066 14.5986 148.066 15.6436ZM145.166 15.6436C145.166 14.8721 145.068 14.1299 144.873 13.417C144.678 12.6943 144.399 12.0205 144.038 11.3955C143.686 10.7705 143.262 10.2041 142.763 9.69629C142.265 9.17871 141.714 8.73926 141.108 8.37793C140.503 8.00684 139.848 7.72363 139.145 7.52832C138.452 7.32324 137.729 7.2207 136.977 7.2207C135.845 7.2207 134.785 7.44531 133.799 7.89453C132.812 8.33398 131.948 8.93457 131.206 9.69629C130.464 10.458 129.878 11.3516 129.448 12.377C129.028 13.3926 128.818 14.4814 128.818 15.6436C128.818 16.8057 129.028 17.8994 129.448 18.9248C129.878 19.9502 130.464 20.8438 131.206 21.6055C131.948 22.3672 132.812 22.9727 133.799 23.4219C134.785 23.8613 135.845 24.0811 136.977 24.0811C137.729 24.0811 138.452 23.9834 139.145 23.7881C139.848 23.583 140.503 23.2998 141.108 22.9385C141.714 22.5674 142.265 22.1279 142.763 21.6201C143.262 21.1025 143.686 20.5312 144.038 19.9062C144.399 19.2812 144.678 18.6123 144.873 17.8994C145.068 17.1768 145.166 16.4248 145.166 15.6436Z" fill="white"/>
</svg>
